<mxfile host="app.diagrams.net" agent="Mozilla/5.0 (Windows NT 10.0; Win64; x64) AppleWebKit/537.36 (KHTML, like Gecko) Chrome/130.0.0.0 Safari/537.36" version="24.8.4">
  <diagram name="Page-1" id="VsHx6AKx9n6huoKGBFxc">
    <mxGraphModel dx="1050" dy="522" grid="1" gridSize="10" guides="1" tooltips="1" connect="1" arrows="1" fold="1" page="1" pageScale="1" pageWidth="850" pageHeight="1100" math="0" shadow="0">
      <root>
        <mxCell id="0" />
        <mxCell id="1" parent="0" />
        <mxCell id="JI2JVxoufU1eyjLKz7Zp-5" value="" style="edgeStyle=orthogonalEdgeStyle;rounded=0;orthogonalLoop=1;jettySize=auto;html=1;" edge="1" parent="1" source="JI2JVxoufU1eyjLKz7Zp-1" target="JI2JVxoufU1eyjLKz7Zp-4">
          <mxGeometry relative="1" as="geometry" />
        </mxCell>
        <mxCell id="JI2JVxoufU1eyjLKz7Zp-1" value="Seller" style="ellipse;whiteSpace=wrap;html=1;aspect=fixed;fillColor=#f8cecc;strokeColor=#b85450;" vertex="1" parent="1">
          <mxGeometry x="190" y="80" width="80" height="80" as="geometry" />
        </mxCell>
        <mxCell id="JI2JVxoufU1eyjLKz7Zp-10" value="" style="edgeStyle=orthogonalEdgeStyle;rounded=0;orthogonalLoop=1;jettySize=auto;html=1;" edge="1" parent="1" source="JI2JVxoufU1eyjLKz7Zp-4" target="JI2JVxoufU1eyjLKz7Zp-9">
          <mxGeometry relative="1" as="geometry" />
        </mxCell>
        <mxCell id="JI2JVxoufU1eyjLKz7Zp-4" value="Platform" style="shape=hexagon;perimeter=hexagonPerimeter2;whiteSpace=wrap;html=1;fixedSize=1;fillColor=#ffe6cc;strokeColor=#d79b00;" vertex="1" parent="1">
          <mxGeometry x="330" y="80" width="120" height="80" as="geometry" />
        </mxCell>
        <mxCell id="JI2JVxoufU1eyjLKz7Zp-8" value="" style="edgeStyle=orthogonalEdgeStyle;rounded=0;orthogonalLoop=1;jettySize=auto;html=1;" edge="1" parent="1" source="JI2JVxoufU1eyjLKz7Zp-6" target="JI2JVxoufU1eyjLKz7Zp-4">
          <mxGeometry relative="1" as="geometry" />
        </mxCell>
        <mxCell id="JI2JVxoufU1eyjLKz7Zp-6" value="Buyer" style="ellipse;whiteSpace=wrap;html=1;fillColor=#f8cecc;strokeColor=#b85450;" vertex="1" parent="1">
          <mxGeometry x="510" y="80" width="80" height="80" as="geometry" />
        </mxCell>
        <mxCell id="JI2JVxoufU1eyjLKz7Zp-9" value="Payment Gateway" style="shape=parallelogram;perimeter=parallelogramPerimeter;whiteSpace=wrap;html=1;fixedSize=1;fillColor=#e1d5e7;strokeColor=#9673a6;" vertex="1" parent="1">
          <mxGeometry x="320" y="250" width="140" height="60" as="geometry" />
        </mxCell>
      </root>
    </mxGraphModel>
  </diagram>
</mxfile>
